PathFileType	4	(X/Y/Z)	C:/Users/opensim2020/Desktop/walking_exp_matlab/subject06_walking23_straight_04.trc	
DataRate	CameraRate	NumFrames	NumMarkers	Units	OrigDataRate	OrigDataStartFrame	OrigNumFrames	
100.00	100.00	7	45	mm	100.00	2392	145	
Frame#	Time	LFHD			RFHD			LBHD			RBHD			C7			T10			CLAV			STRN			RBAK			LSHO			LUPA			LELB			LFRM			LWRA			LWRB			LFIN			RSHO			RUPA			RELB			RFRM			RWRA			RWRB			RFIN			LASI			RASI			LPSI			RPSI			LTHI			LKNE			LTIB			LANK			LHEE			LTOE			RTHI			RKNE			RTIB			RANK			RHEE			RTOE			*39			*40			*41			*42			*43			*44			
		X1	Y1	Z1	X2	Y2	Z2	X3	Y3	Z3	X4	Y4	Z4	X5	Y5	Z5	X6	Y6	Z6	X7	Y7	Z7	X8	Y8	Z8	X9	Y9	Z9	X10	Y10	Z10	X11	Y11	Z11	X12	Y12	Z12	X13	Y13	Z13	X14	Y14	Z14	X15	Y15	Z15	X16	Y16	Z16	X17	Y17	Z17	X18	Y18	Z18	X19	Y19	Z19	X20	Y20	Z20	X21	Y21	Z21	X22	Y22	Z22	X23	Y23	Z23	X24	Y24	Z24	X25	Y25	Z25	X26	Y26	Z26	X27	Y27	Z27	X28	Y28	Z28	X29	Y29	Z29	X30	Y30	Z30	X31	Y31	Z31	X32	Y32	Z32	X33	Y33	Z33	X34	Y34	Z34	X35	Y35	Z35	X36	Y36	Z36	X37	Y37	Z37	X38	Y38	Z38	X39	Y39	Z39	X40	Y40	Z40	X41	Y41	Z41	X42	Y42	Z42	X43	Y43	Z43	X44	Y44	Z44	X45	Y45	Z45	

127	1.260	-887.16370	-817.26044	1638.14539	-1019.53662	-828.28925	1637.37439	-902.73627	-686.60986	1579.06567	-1031.46863	-699.24677	1582.76379	-960.55463	-697.80457	1422.81384	-981.59039	-686.39575	1092.40125	-966.34454	-813.71320	1354.94775	-970.60986	-866.21460	1184.74207	-1042.25488	-633.00153	1250.88733	-801.59302	-758.46790	1376.77856	-737.01117	-723.52466	1178.01550	-732.20367	-693.41754	1068.44775	-713.63763	-684.49487	918.37531	-760.13403	-715.10114	793.47186	-720.32605	-657.18909	802.57770	-726.55530	-672.93433	712.26953	-1124.31116	-755.18903	1391.02527	-1221.64771	-709.53766	1201.21191	-1244.63672	-724.00018	1083.86145	-1266.47693	-782.57422	983.55096	-1236.50183	-900.14160	891.52191	-1275.50537	-851.65619	866.53766	-1279.19385	-920.09796	818.25696	-887.67297	-881.77258	952.54156	-1103.51624	-859.52942	947.56140	-901.23523	-719.58752	966.19244	-1068.76697	-710.35156	962.40027	-829.68658	-893.14056	642.72198	-866.75500	-941.51105	490.10828	-879.60779	-937.43353	230.47794	-928.45953	-936.86084	62.51282	-972.76880	-895.17554	50.38631	-938.79547	-1080.26721	36.00049	-1164.37915	-805.80151	600.89844	-1154.24268	-813.84430	473.36859	-1121.94946	-615.77722	312.39252	-1060.00806	-472.40280	207.48178	-1010.84290	-446.59976	233.47198	-1048.68787	-494.61172	51.06467	-952.06787	-720.55225	1676.72412															 
128	1.270	-885.83984	-827.92084	1639.21680	-1018.19586	-839.51862	1638.89954	-902.16388	-697.61676	1579.61023	-1030.88623	-710.66125	1583.77124	-960.00726	-709.58667	1423.98438	-981.35895	-698.00378	1093.32068	-965.82153	-825.61163	1356.20276	-969.97467	-878.27881	1186.11523	-1042.21448	-644.60492	1252.17114	-800.88599	-770.53101	1377.58081	-736.21173	-738.00226	1178.19739	-730.93494	-709.45605	1068.34290	-712.63800	-702.72363	918.07965	-759.70410	-734.96521	793.73950	-719.20129	-677.45319	801.80872	-725.83051	-694.39618	711.82703	-1123.87341	-767.24017	1391.84570	-1220.68689	-721.74030	1201.64673	-1243.11414	-735.60754	1084.02527	-1264.87756	-792.64166	982.58276	-1235.29602	-908.45898	887.99554	-1274.23743	-859.43506	864.21088	-1278.12915	-926.66840	814.27936	-886.90430	-893.03253	953.91138	-1103.10095	-871.38477	948.49982	-900.75879	-731.09979	967.05054	-1068.41785	-722.12018	962.44928	-830.07263	-902.78082	642.74957	-867.14862	-950.27655	489.74170	-880.54535	-939.86591	230.74759	-928.88922	-937.07214	62.73367	-973.10773	-895.31390	50.59436	-938.95996	-1080.62732	35.62565	-1164.51440	-825.10132	601.47961	-1155.25098	-838.07092	474.64667	-1125.52625	-642.24030	314.61417	-1063.08447	-495.17947	214.71228	-1013.67474	-470.30807	241.44138	-1052.51538	-511.47549	56.81228	-951.09283	-731.38440	1677.65430															 
129	1.280	-884.59296	-838.58643	1640.54041	-1016.90442	-850.71307	1640.65259	-901.68042	-708.53931	1580.48511	-1030.33765	-722.15454	1585.10620	-959.53766	-721.59631	1425.65552	-980.76843	-709.75104	1094.39551	-965.33435	-837.41113	1357.63269	-969.32031	-890.02966	1187.61401	-1042.30286	-656.29730	1253.59766	-800.36243	-782.36957	1378.39856	-735.43518	-752.54913	1178.41321	-729.66241	-725.63721	1068.16187	-711.35016	-721.56653	917.77252	-759.28479	-755.31696	794.10248	-717.63965	-697.75159	801.13855	-725.00311	-716.54199	711.49585	-1123.58191	-779.35065	1392.86719	-1220.05676	-733.91492	1202.28784	-1241.92944	-747.09448	1084.26123	-1263.54700	-802.45966	981.56995	-1234.14514	-916.60706	884.51892	-1272.98364	-866.93213	861.88068	-1276.86243	-933.02484	810.38080	-886.35742	-903.97925	955.40161	-1102.94641	-882.86194	949.87140	-900.17682	-742.56897	967.83313	-1067.90991	-733.55554	962.84149	-830.28607	-912.28107	642.75262	-867.48267	-958.14362	489.30600	-881.32318	-941.55273	231.36197	-929.12549	-937.22638	63.16791	-973.43384	-895.33893	50.69779	-939.33411	-1080.89893	35.44922	-1164.42261	-844.47803	602.89954	-1155.80920	-862.20087	476.86407	-1128.00964	-669.59546	315.64255	-1065.66211	-517.97461	220.91814	-1015.98151	-492.25763	246.72702	-1057.89014	-534.59705	62.30934	-950.23120	-742.20599	1678.77844															 
130	1.290	-883.41058	-849.28986	1642.00317	-1015.71387	-861.91498	1642.47839	-901.14630	-719.46832	1581.60156	-1029.72437	-733.66504	1586.51929	-958.96014	-733.41327	1427.50916	-980.38580	-720.57556	1095.95776	-964.93054	-849.10645	1359.21655	-968.65338	-901.55304	1189.24585	-1042.24573	-667.47992	1255.69995	-799.83783	-794.05658	1379.48645	-734.68250	-767.11090	1178.80774	-728.58966	-741.74438	1068.10706	-710.31067	-740.81610	917.71832	-758.95233	-776.36078	794.76447	-716.45123	-719.70557	800.98010	-724.12573	-739.30786	711.44470	-1123.41528	-791.52032	1394.11877	-1219.23462	-746.20746	1203.03247	-1241.04431	-758.67151	1084.59277	-1262.27405	-812.22498	980.59967	-1232.96985	-924.44653	881.09845	-1271.69336	-874.07483	859.52667	-1275.61487	-939.03448	806.55029	-885.91083	-914.66766	957.03058	-1102.84216	-894.22333	951.82617	-899.51440	-753.62756	968.69702	-1067.29260	-744.69556	963.56488	-830.56952	-921.23993	642.90417	-867.61346	-965.03467	488.95593	-882.02191	-943.39056	231.98386	-929.65405	-937.37567	63.12525	-973.79187	-895.41406	50.86902	-939.72888	-1081.24756	35.37661	-1163.99707	-863.91302	605.08722	-1156.02075	-885.90479	480.04086	-1129.93372	-694.89752	317.89795	-1068.35657	-542.20886	225.34073	-1018.78900	-514.24280	249.57065	-1063.64880	-563.11560	67.40471	-949.44122	-753.03278	1680.10022															 
131	1.300	-882.41028	-859.93518	1643.53467	-1014.64435	-873.14325	1644.30481	-900.78662	-730.35559	1582.79370	-1029.26953	-745.04688	1588.03857	-958.80853	-745.02136	1429.28149	-979.91064	-731.19135	1097.83911	-964.55859	-860.62457	1360.78027	-968.03778	-912.81335	1190.89014	-1042.20459	-678.94812	1257.71106	-799.48315	-805.56750	1380.72595	-734.04022	-781.70374	1179.44458	-727.41852	-758.42828	1068.27441	-709.29242	-760.40698	917.84271	-758.50140	-797.69659	795.69824	-715.38483	-741.22406	800.55829	-722.89459	-763.10242	711.81836	-1123.20813	-803.56891	1395.45068	-1218.72278	-758.40955	1204.07886	-1240.21960	-770.28217	1085.10706	-1261.08557	-821.90973	979.77594	-1231.79626	-931.97223	877.76996	-1270.43982	-881.13751	857.43085	-1274.32263	-944.72833	802.87262	-885.60248	-924.86066	958.67035	-1102.75867	-905.48889	954.15741	-898.92468	-764.13904	969.74756	-1066.48779	-755.70294	964.50317	-830.90887	-929.44751	643.14410	-867.65460	-971.17670	488.63474	-882.41498	-945.50415	232.28743	-929.88385	-937.61041	63.50293	-974.12616	-895.57251	51.01926	-939.91980	-1081.59766	35.43047	-1163.48059	-883.27393	608.03894	-1155.63623	-909.54248	483.73114	-1131.07141	-719.46204	321.16800	-1071.33875	-567.34760	227.78082	-1022.09326	-536.57007	250.02226	-1069.42542	-595.04810	71.00375	-948.74963	-763.80084	1681.56494															 
132	1.310	-881.43921	-870.58661	1645.15833	-1013.64563	-884.34424	1646.11157	-900.43378	-741.32861	1584.06470	-1027.84485	-755.44922	1589.79504	-958.66949	-756.41418	1430.95520	-979.26379	-741.80493	1099.66907	-964.17291	-872.03265	1362.41895	-967.36694	-923.82440	1192.54724	-1041.88257	-690.00305	1259.86560	-799.17352	-816.96381	1382.15955	-733.47852	-796.23602	1180.32983	-726.23022	-775.34717	1068.79260	-708.33691	-780.45770	918.34241	-757.96802	-819.23981	796.91022	-714.22772	-763.41461	800.73047	-721.66180	-787.32446	712.66528	-1122.99609	-815.53259	1397.00171	-1218.14966	-770.62531	1205.33179	-1239.38770	-782.14331	1085.96606	-1259.99780	-831.51447	979.20135	-1230.61401	-939.22516	874.64282	-1269.30713	-887.81403	855.60059	-1273.22998	-950.11298	799.41821	-884.87518	-935.09686	960.33789	-1102.22754	-916.70306	956.68463	-898.24683	-774.80829	970.68103	-1065.73108	-766.69708	965.74957	-831.17261	-937.00464	643.53882	-867.69885	-976.85956	488.35516	-882.65686	-947.47888	232.24652	-930.13501	-937.73840	63.70224	-974.32013	-895.60059	51.22311	-940.05579	-1081.92932	35.25687	-1162.86072	-902.43457	611.47430	-1154.74780	-932.82855	487.97766	-1132.25269	-744.31018	324.12314	-1074.75159	-592.85107	228.14388	-1025.63098	-560.00903	248.30347	-1075.10730	-627.97437	73.26709	-948.16504	-774.60736	1682.89160															 
133	1.320	-880.61462	-881.24261	1646.76245	-1012.75427	-895.53131	1648.00586	-900.30066	-752.19867	1585.29663	-1028.68933	-767.88965	1590.96216	-958.71332	-767.66571	1432.37170	-978.53998	-752.31989	1101.36523	-963.79541	-883.29364	1364.08093	-966.65851	-934.59180	1194.27795	-1041.79712	-701.14783	1261.97998	-798.85699	-828.22095	1383.89417	-732.95496	-810.69788	1181.56848	-725.36444	-792.16687	1069.60901	-707.46326	-800.87183	919.33661	-757.54254	-841.28064	798.70496	-712.93768	-786.12488	801.38989	-720.39471	-812.09491	713.95935	-1122.69702	-827.47516	1398.72583	-1217.60022	-782.92596	1206.81482	-1238.54700	-793.93414	1087.12659	-1258.89587	-840.87201	978.89819	-1229.45349	-946.16595	871.78534	-1268.16406	-894.34796	853.89844	-1271.74915	-955.20758	796.16797	-883.80176	-945.08685	961.96857	-1101.39136	-927.94000	959.47284	-897.68347	-785.38556	971.72711	-1064.90137	-777.69519	967.23334	-831.36206	-944.18140	643.96558	-867.75433	-982.37897	488.10657	-882.61548	-950.07513	232.28587	-930.31427	-937.98932	63.75117	-974.39594	-895.66809	51.39619	-940.27588	-1081.97876	35.19419	-1162.19495	-921.39264	615.32648	-1153.70703	-955.40900	492.64447	-1133.49207	-769.59802	326.06558	-1078.19922	-619.39465	226.19308	-1028.85205	-584.94025	244.68172	-1080.33484	-661.86005	74.31182	-947.72516	-785.40430	1684.39172															 
